<svg xmlns="http://www.w3.org/2000/svg" viewBox="0 0 64 64" role="img" aria-label="Bridget Lin">
  <rect width="64" height="64" rx="14" fill="#f4f1ec"/>
  <rect x="2" y="2" width="60" height="60" rx="12" fill="none" stroke="#2f5d56" stroke-width="2" opacity="0.25"/>
  <!-- stylized B -->
  <path fill="#2f5d56" d="M18 14h12.5c6.2 0 10.5 3.4 10.5 8.6 0 3.4-1.8 6-4.8 7.4 3.6 1.2 6 4.4 6 8.4 0 5.8-4.8 9.6-12.2 9.6H18V14zm10.8 12.2c3.5 0 5.6-1.6 5.6-4.3 0-2.6-2-4.1-5.6-4.1H26v8.4h2.8zm.4 19.4c3.9 0 6.2-1.7 6.2-4.8 0-3-2.3-4.7-6.4-4.7H26v9.5h3.2z"/>
  <!-- tiny data dots -->
  <circle cx="49" cy="17" r="3" fill="#33C3F0"/>
  <circle cx="56" cy="24" r="2.2" fill="#33C3F0" opacity="0.75"/>
  <circle cx="49" cy="31" r="1.6" fill="#33C3F0" opacity="0.55"/>
</svg>
